# xmcd
#
# Track frame offsets: 
#        150
#        15152
#        28837
#        44692
#        58377
#        76157
#        95707
#        112305
#        124472
#
# Disc length: 1874 seconds
#
# Revision: 0
# Processed by: cddbd v1.5.2PL0 Copyright (c) Steve Scherf et al.
# Submitted via: ExactAudioCopy v0.99pb4
#
DISCID=7f075009
DTITLE=Steve Pepper Band - Memphis
DYEAR=2000
DGENRE=Alt. Rock
TTITLE0=Constant Revelations
TTITLE1=Memphis
TTITLE2=Money Back
TTITLE3=Ordinary Life
TTITLE4=Winnebago Song
TTITLE5=Christmas in July
TTITLE6=Trial by Fire
TTITLE7=Your Love Now
TTITLE8=Temporary Man
EXTD=
EXTT0=
EXTT1=
EXTT2=
EXTT3=
EXTT4=
EXTT5=
EXTT6=
EXTT7=
EXTT8=
PLAYORDER=
